<?xml version="1.0" standalone="no"?><!DOCTYPE svg PUBLIC "-//W3C//DTD SVG 1.1//EN" "http://www.w3.org/Graphics/SVG/1.1/DTD/svg11.dtd"><svg t="1748870648059" class="icon" viewBox="0 0 1024 1024" version="1.1" xmlns="http://www.w3.org/2000/svg" p-id="20571" xmlns:xlink="http://www.w3.org/1999/xlink" width="200" height="200"><path d="M510.59665306 511.75593965m-390.49653832 0a390.49653835 390.49653835 0 1 0 780.99307667 0 390.49653835 390.49653835 0 1 0-780.99307667 0Z" fill="#4285f4" p-id="20572" data-spm-anchor-id="a313x.search_index.0.i17.75393a81QxAisG" class="selected"></path><path d="M673.93403325 529.32828389c-6.24387693 0-12.48775389-2.37958829-17.24693046-7.1591032l-146.09044973-145.96841956L364.50620332 522.16918069c-9.53869151 9.53869151-24.97550777 9.53869151-34.51419922 0-9.53869151-9.53869151-9.53869151-24.99584613 0-34.51419925l163.33738018-163.23568838c9.53869151-9.53869151 24.97550777-9.53869151 34.51419925 0l163.33738014 163.23568838c9.53869151 9.51835312 9.53869151 24.97550777 0 34.51419925a24.21688689 24.21688689 0 0 1-17.24693042 7.1591032z" fill="#FFFFFF" p-id="20573" data-spm-anchor-id="a313x.search_index.0.i18.75393a81QxAisG" class=""></path><path d="M510.57631469 706.25168946c-13.4843336 0-24.40603363-10.94203841-24.40603363-24.40603366V341.68656189c0-13.4843336 10.94203841-24.40603363 24.40603363-24.40603368 13.4843336 0 24.40603363 10.94203841 24.40603365 24.40603368v340.15909391c0 13.46399523-10.92170004 24.40603363-24.40603365 24.40603366z" fill="#FFFFFF" p-id="20574"></path></svg>