<?xml version="1.0" standalone="no"?><!DOCTYPE svg PUBLIC "-//W3C//DTD SVG 1.1//EN" "http://www.w3.org/Graphics/SVG/1.1/DTD/svg11.dtd"><svg t="1759476362835" class="icon" viewBox="0 0 1024 1024" version="1.1" xmlns="http://www.w3.org/2000/svg" p-id="3666" xmlns:xlink="http://www.w3.org/1999/xlink" width="200" height="200"><path d="M512.475429 1023.634286c-281.965714 0-511.268571-229.522286-511.268572-511.414857 0-281.965714 229.302857-511.268571 511.268572-511.268572 281.892571 0 511.268571 229.302857 511.268571 511.378286 0 281.929143-229.376 511.268571-511.268571 511.268571z m-85.211429-237.348572h168.96c20.333714-2.304 36.205714-20.772571 36.205714-43.154285v-0.365715h0.073143v-34.413714h0.073143v-212.992a16.091429 16.091429 0 0 1 12.873143-12.982857h79.945143c0.438857 0 0.768 0 1.206857-0.073143l0.585143-0.036571 0.585143-0.073143 0.731428-0.073143 0.475429-0.073143 0.365714-0.036571 0.365714-0.073143 0.438857-0.073143 0.768-0.182857 0.182858-0.036572 0.877714-0.219428 0.438857-0.146286c0.219429-0.036571 0.475429-0.109714 0.658286-0.256l0.475428-0.182857 0.585143-0.256 0.512-0.182857 0.548572-0.256 0.585142-0.256c0.109714-0.073143 0.292571-0.109714 0.438858-0.256 0.219429-0.109714 0.365714-0.256 0.621714-0.329143a1.243429 1.243429 0 0 0 0.365714-0.256l0.658286-0.365714 0.365714-0.256 0.658286-0.438858 0.365714-0.256 0.621714-0.512 0.365715-0.329142 0.512-0.438858c0.182857-0.109714 0.329143-0.329143 0.475428-0.438857l0.438857-0.365714c0.292571-0.365714 0.585143-0.585143 0.877715-0.914286l0.841143-0.950857 0.365714-0.438857c0.109714-0.182857 0.292571-0.329143 0.365714-0.512 0.219429-0.182857 0.329143-0.365714 0.438857-0.585143l0.292572-0.365714c0.182857-0.256 0.329143-0.438857 0.475428-0.731429l0.256-0.365714c0.109714-0.256 0.292571-0.438857 0.402286-0.731429l0.256-0.365714 0.365714-0.694857 0.219429-0.365714c0.109714-0.256 0.219429-0.438857 0.292571-0.731429 0.073143-0.109714 0.109714-0.292571 0.256-0.402286l0.219429-0.658285 0.256-0.585143 0.365714-1.206857 0.219429-0.512c0.036571-0.256 0.182857-0.475429 0.219428-0.694857 0.073143-0.109714 0.073143-0.292571 0.109715-0.438858l0.182857-0.731428 0.146285-0.475429 0.146286-0.841143 0.073143-0.438857a3.986286 3.986286 0 0 0 0.109714-0.804571l0.073143-0.512c0.073143-0.256 0.073143-0.512 0.073143-0.768l0.036571-0.658286 0.073143-0.548571a19.163429 19.163429 0 0 0 0-2.633143c0-0.182857 0-0.365714-0.073143-0.548572l-0.036571-0.658285-0.073143-0.731429-0.073143-0.548571c-0.036571-0.256-0.036571-0.548571-0.109714-0.804572l-0.073143-0.475428-0.146286-0.804572-0.146285-0.438857-0.182857-0.768c-0.036571-0.146286-0.036571-0.329143-0.109715-0.438857-0.036571-0.256-0.109714-0.512-0.219428-0.731429-0.073143-0.182857-0.146286-0.292571-0.182857-0.512l-0.256-0.621714-0.219429-0.585143-0.256-0.548571-0.219429-0.658286c-0.073143-0.109714-0.109714-0.292571-0.256-0.438857l-0.365714-0.694857c0-0.146286-0.109714-0.256-0.219428-0.365714l-0.365715-0.731429a1.353143 1.353143 0 0 0-0.219428-0.365714l-0.402286-0.731429-0.256-0.365714c-0.109714-0.256-0.292571-0.438857-0.475429-0.694857l-0.292571-0.365715c-0.109714-0.219429-0.292571-0.365714-0.402286-0.658285a3.145143 3.145143 0 0 0-0.438857-0.512l-0.365714-0.438857a5.705143 5.705143 0 0 0-0.804572-0.877715l-212.736-228.498285-0.512-0.585143A23.405714 23.405714 0 0 0 512 201.142857a23.405714 23.405714 0 0 0-17.225143 7.643429l-0.548571 0.585143-212.845715 228.498285a27.136 27.136 0 0 0-7.094857 18.724572v0.256c0 14.372571 10.861714 26.112 24.32 26.112h94.976v269.165714c3.364571 17.737143 16.896 31.561143 33.682286 34.157714z" fill="#0091FF" p-id="3667" data-spm-anchor-id="a313x.search_index.0.i9.2c983a81e1nLcj" class="selected"></path></svg>