<?xml version="1.0" standalone="no"?><!DOCTYPE svg PUBLIC "-//W3C//DTD SVG 1.1//EN" "http://www.w3.org/Graphics/SVG/1.1/DTD/svg11.dtd"><svg t="1748233657647" class="icon" viewBox="0 0 1024 1024" version="1.1" xmlns="http://www.w3.org/2000/svg" p-id="2637" xmlns:xlink="http://www.w3.org/1999/xlink" width="200" height="200"><path d="M887.466667 610.986667c17.066667 3.413333 30.72 17.066667 30.72 34.133333v129.706667c0 17.066667-13.653333 34.133333-34.133334 34.133333-17.066667 0-34.133333-13.653333-34.133333-34.133333v-17.066667c-78.506667 109.226667-204.8 174.08-341.333333 174.08-180.906667 3.413333-337.92-112.64-399.36-279.893333-6.826667-17.066667 3.413333-34.133333 20.48-40.96 17.066667-3.413333 34.133333 3.413333 40.96 20.48 51.2 143.36 184.32 238.933333 337.92 238.933333 150.186667 0 286.72-95.573333 337.92-238.933333 3.413333-17.066667 23.893333-27.306667 40.96-20.48zM645.12 112.64c122.88 40.96 218.453333 139.946667 262.826667 262.826667 6.826667 17.066667-3.413333 34.133333-20.48 40.96-3.413333 0-6.826667 3.413333-10.24 3.413333-13.653333 0-27.306667-10.24-30.72-20.48-64.853333-191.146667-266.24-290.133333-453.973334-225.28-102.4 34.133333-184.32 116.053333-218.453333 215.04-3.413333 17.066667-17.066667 27.306667-34.133333 27.306667s-34.133333-13.653333-34.133334-34.133334V256c0-17.066667 13.653333-34.133333 34.133334-34.133333s34.133333 13.653333 34.133333 34.133333c105.813333-139.946667 293.546667-204.8 471.04-143.36z" fill="#979797" p-id="2638"></path></svg>