<?xml version="1.0" standalone="no"?><!DOCTYPE svg PUBLIC "-//W3C//DTD SVG 1.1//EN" "http://www.w3.org/Graphics/SVG/1.1/DTD/svg11.dtd"><svg t="1745584701870" class="icon" viewBox="0 0 1024 1024" version="1.1" xmlns="http://www.w3.org/2000/svg" p-id="5185" xmlns:xlink="http://www.w3.org/1999/xlink" width="200" height="200"><path d="M512 512m-512 0a512 512 0 1 0 1024 0 512 512 0 1 0-1024 0Z" fill="#007BFF" p-id="5186"></path><path d="M738.52928 428.40064C768.75776 438.94784 790.58944 467.51744 790.58944 500.9408v63.81568c0 33.3824-21.83168 61.97248-52.06016 72.56064A184.66816 184.66816 0 0 1 566.08768 755.77344h-83.41504a184.64768 184.64768 0 0 1-172.42112-118.45632C279.94112 626.72896 258.10944 598.1184 258.10944 564.75648v-63.81568c0-24.63744 11.8784-46.6944 30.22848-60.74368l2.31424-93.2864a21.2992 21.2992 0 0 1-13.47584-19.70176V285.51168a21.504 21.504 0 0 1 43.008 0v41.75872c0 8.86784-5.59104 16.54784-13.47584 19.68128l2.00704 82.04288c0.49152-0.2048 1.00352-0.4096 1.51552-0.57344a184.68864 184.68864 0 0 1 172.4416-118.4768h83.41504a184.54528 184.54528 0 0 1 172.4416 118.45632z m-19.456 130.72384v-52.46976c0-43.02848-35.59424-78.19264-79.11424-78.19264H408.80128c-43.54048 0-79.13472 35.16416-79.13472 78.19264v52.46976c0 43.008 35.59424 78.19264 79.13472 78.19264h231.17824c43.54048 0 79.11424-35.16416 79.11424-78.19264z" fill="#FFFFFF" p-id="5187"></path><path d="M442.42944 530.49344m-40.96 0a40.96 40.96 0 1 0 81.92 0 40.96 40.96 0 1 0-81.92 0Z" fill="#FFFFFF" p-id="5188"></path><path d="M606.26944 530.49344m-40.96 0a40.96 40.96 0 1 0 81.92 0 40.96 40.96 0 1 0-81.92 0Z" fill="#FFFFFF" p-id="5189"></path></svg>