<?xml version="1.0" standalone="no"?><!DOCTYPE svg PUBLIC "-//W3C//DTD SVG 1.1//EN" "http://www.w3.org/Graphics/SVG/1.1/DTD/svg11.dtd"><svg t="1748870889963" class="icon" viewBox="0 0 1024 1024" version="1.1" xmlns="http://www.w3.org/2000/svg" p-id="5234" xmlns:xlink="http://www.w3.org/1999/xlink" width="200" height="200"><path d="M511.98 902.7c-100.09 0-200.18-38.11-276.38-114.3-152.39-152.4-152.39-400.36 0-552.76s400.36-152.39 552.75 0 152.39 400.36 0 552.75c-76.19 76.2-176.28 114.31-276.37 114.31z m0-708.25c-81.36 0-162.71 30.98-224.66 92.91-123.88 123.88-123.88 325.45 0 449.32 123.89 123.86 325.43 123.86 449.32 0 123.88-123.88 123.88-325.45 0-449.32-61.95-61.93-143.3-92.91-224.66-92.91z" fill="#4285f4" p-id="5235"></path><path d="M735.07 548.59H288.91c-20.2 0-36.57-16.38-36.57-36.57 0-20.2 16.37-36.57 36.57-36.57h446.16c20.2 0 36.57 16.38 36.57 36.57s-16.38 36.57-36.57 36.57z" fill="#4285f4" p-id="5236"></path><path d="M511.98 771.66c-20.2 0-36.57-16.38-36.57-36.57V288.93c0-20.2 16.38-36.57 36.57-36.57 20.2 0 36.57 16.38 36.57 36.57v446.16c0 20.2-16.37 36.57-36.57 36.57z" fill="#4285f4" p-id="5237"></path></svg>